<svg width="20" height="20" viewBox="0 0 20 20" fill="none" xmlns="http://www.w3.org/2000/svg">
<path fill-rule="evenodd" clip-rule="evenodd" d="M19.6304 2.51753L17.4824 0.369585C16.9591 -0.153807 16.0736 -0.116843 15.5046 0.452175L13.4866 2.47017L17.5299 6.51338L19.5479 4.49543C20.1167 3.92642 20.1537 3.04088 19.6304 2.51753ZM5.84816 18.1952L1.8049 14.1519L12.9812 2.97565L17.0244 7.0189L5.84816 18.1952ZM0 19.9999L1.42951 14.788L5.21147 18.5704L0 19.9999Z" fill="#07D5E8"/>
<mask id="mask0" mask-type="alpha" maskUnits="userSpaceOnUse" x="0" y="0" width="20" height="20">
<path fill-rule="evenodd" clip-rule="evenodd" d="M19.6304 2.51753L17.4824 0.369585C16.9591 -0.153807 16.0736 -0.116843 15.5046 0.452175L13.4866 2.47017L17.5299 6.51338L19.5479 4.49543C20.1167 3.92642 20.1537 3.04088 19.6304 2.51753ZM5.84816 18.1952L1.8049 14.1519L12.9812 2.97565L17.0244 7.0189L5.84816 18.1952ZM0 19.9999L1.42951 14.788L5.21147 18.5704L0 19.9999Z" fill="white"/>
</mask>
<g mask="url(#mask0)">
<rect width="17" height="17" fill="#07D5E8"/>
</g>
</svg>
