<svg width="20" height="20" viewBox="0 0 20 20" fill="none" xmlns="http://www.w3.org/2000/svg">
<path fill-rule="evenodd" clip-rule="evenodd" d="M9.16669 0.833333C9.16669 0.375 9.54169 0 10 0C10.4584 0 10.8334 0.375 10.8334 0.833333V5C10.8334 5.45833 10.4584 5.83333 10 5.83333C9.54169 5.83333 9.16669 5.45833 9.16669 5V0.833333ZM5 9.16667C5.45833 9.16667 5.83333 9.54167 5.83333 10C5.83333 10.4583 5.45833 10.8333 5 10.8333H0.833333C0.375 10.8333 0 10.4583 0 10C0 9.54167 0.375 9.16667 0.833333 9.16667H5ZM15 9.16667H19.1667C19.625 9.16667 20 9.54167 20 10C20 10.4583 19.625 10.8333 19.1667 10.8333H15C14.5417 10.8333 14.1667 10.4583 14.1667 10C14.1667 9.54167 14.5417 9.16667 15 9.16667ZM10 14.1667C9.54169 14.1667 9.16669 14.5417 9.16669 15V19.1667C9.16669 19.625 9.54169 20 10 20C10.4584 20 10.8334 19.625 10.8334 19.1667V15C10.8334 14.5417 10.4584 14.1667 10 14.1667ZM13.6093 7.91665C13.8385 8.3177 14.3489 8.45311 14.75 8.22395L18.3593 6.14061C18.7604 5.91145 18.8958 5.40103 18.6666 4.99999C18.4375 4.59895 17.927 4.46353 17.526 4.6927L13.9166 6.77603C13.5156 7.0104 13.3802 7.51561 13.6093 7.91665ZM5.25008 11.776C5.65112 11.5469 6.16154 11.6823 6.3907 12.0833C6.61987 12.4844 6.48445 12.9896 6.08341 13.2239L2.47404 15.3073C2.07299 15.5364 1.56258 15.401 1.33341 15C1.10424 14.5989 1.23966 14.0885 1.6407 13.8594L5.25008 11.776ZM13.224 13.9115C12.9949 13.5104 12.4844 13.375 12.0834 13.6042C11.6824 13.8333 11.5469 14.3438 11.7761 14.7448L13.8594 18.3542C14.0886 18.7552 14.599 18.8906 15.0001 18.6615C15.4011 18.4323 15.5365 17.9219 15.3074 17.5208L13.224 13.9115ZM5.00008 1.33855C5.40112 1.10938 5.91154 1.2448 6.1407 1.64584L8.22404 5.25521C8.4532 5.65625 8.31779 6.16667 7.91674 6.39584C7.5157 6.625 7.00529 6.48959 6.77612 6.08855L4.69279 2.47917C4.46362 2.07813 4.59904 1.56771 5.00008 1.33855ZM12.0834 6.39061C12.4844 6.61978 12.9896 6.48436 13.224 6.08332L15.3074 2.47395C15.5365 2.0729 15.4011 1.5677 15.0001 1.33332C14.599 1.10415 14.0938 1.23957 13.8594 1.64061L11.7761 5.24999C11.5469 5.65103 11.6824 6.16145 12.0834 6.39061ZM6.77612 13.9167C7.0105 13.5156 7.5157 13.3802 7.91674 13.6094C8.31779 13.8386 8.4532 14.349 8.22404 14.75L6.1407 18.3594C5.90633 18.7604 5.40112 18.8959 5.00008 18.6667C4.59904 18.4323 4.46362 17.9271 4.69279 17.5261L6.77612 13.9167ZM18.3542 13.8594L14.7448 11.776C14.3438 11.5469 13.8386 11.6823 13.6042 12.0833C13.375 12.4844 13.5104 12.9896 13.9115 13.2239L17.5209 15.3073C17.9219 15.5364 18.4271 15.401 18.6615 15C18.8906 14.5989 18.7552 14.0937 18.3542 13.8594ZM5.25523 8.22395L1.64585 6.14061C1.24481 5.90624 1.1094 5.40103 1.33856 4.99999C1.57294 4.59895 2.07815 4.46353 2.47919 4.6927L6.08856 6.77603C6.48961 7.0104 6.63023 7.51561 6.39586 7.91665C6.16148 8.3177 5.65627 8.45311 5.25523 8.22395Z" fill="#FA9FBD"/>
<mask id="mask0" mask-type="alpha" maskUnits="userSpaceOnUse" x="0" y="0" width="20" height="20">
<path fill-rule="evenodd" clip-rule="evenodd" d="M9.16669 0.833333C9.16669 0.375 9.54169 0 10 0C10.4584 0 10.8334 0.375 10.8334 0.833333V5C10.8334 5.45833 10.4584 5.83333 10 5.83333C9.54169 5.83333 9.16669 5.45833 9.16669 5V0.833333ZM5 9.16667C5.45833 9.16667 5.83333 9.54167 5.83333 10C5.83333 10.4583 5.45833 10.8333 5 10.8333H0.833333C0.375 10.8333 0 10.4583 0 10C0 9.54167 0.375 9.16667 0.833333 9.16667H5ZM15 9.16667H19.1667C19.625 9.16667 20 9.54167 20 10C20 10.4583 19.625 10.8333 19.1667 10.8333H15C14.5417 10.8333 14.1667 10.4583 14.1667 10C14.1667 9.54167 14.5417 9.16667 15 9.16667ZM10 14.1667C9.54169 14.1667 9.16669 14.5417 9.16669 15V19.1667C9.16669 19.625 9.54169 20 10 20C10.4584 20 10.8334 19.625 10.8334 19.1667V15C10.8334 14.5417 10.4584 14.1667 10 14.1667ZM13.6093 7.91665C13.8385 8.3177 14.3489 8.45311 14.75 8.22395L18.3593 6.14061C18.7604 5.91145 18.8958 5.40103 18.6666 4.99999C18.4375 4.59895 17.927 4.46353 17.526 4.6927L13.9166 6.77603C13.5156 7.0104 13.3802 7.51561 13.6093 7.91665ZM5.25008 11.776C5.65112 11.5469 6.16154 11.6823 6.3907 12.0833C6.61987 12.4844 6.48445 12.9896 6.08341 13.2239L2.47404 15.3073C2.07299 15.5364 1.56258 15.401 1.33341 15C1.10424 14.5989 1.23966 14.0885 1.6407 13.8594L5.25008 11.776ZM13.224 13.9115C12.9949 13.5104 12.4844 13.375 12.0834 13.6042C11.6824 13.8333 11.5469 14.3438 11.7761 14.7448L13.8594 18.3542C14.0886 18.7552 14.599 18.8906 15.0001 18.6615C15.4011 18.4323 15.5365 17.9219 15.3074 17.5208L13.224 13.9115ZM5.00008 1.33855C5.40112 1.10938 5.91154 1.2448 6.1407 1.64584L8.22404 5.25521C8.4532 5.65625 8.31779 6.16667 7.91674 6.39584C7.5157 6.625 7.00529 6.48959 6.77612 6.08855L4.69279 2.47917C4.46362 2.07813 4.59904 1.56771 5.00008 1.33855ZM12.0834 6.39061C12.4844 6.61978 12.9896 6.48436 13.224 6.08332L15.3074 2.47395C15.5365 2.0729 15.4011 1.5677 15.0001 1.33332C14.599 1.10415 14.0938 1.23957 13.8594 1.64061L11.7761 5.24999C11.5469 5.65103 11.6824 6.16145 12.0834 6.39061ZM6.77612 13.9167C7.0105 13.5156 7.5157 13.3802 7.91674 13.6094C8.31779 13.8386 8.4532 14.349 8.22404 14.75L6.1407 18.3594C5.90633 18.7604 5.40112 18.8959 5.00008 18.6667C4.59904 18.4323 4.46362 17.9271 4.69279 17.5261L6.77612 13.9167ZM18.3542 13.8594L14.7448 11.776C14.3438 11.5469 13.8386 11.6823 13.6042 12.0833C13.375 12.4844 13.5104 12.9896 13.9115 13.2239L17.5209 15.3073C17.9219 15.5364 18.4271 15.401 18.6615 15C18.8906 14.5989 18.7552 14.0937 18.3542 13.8594ZM5.25523 8.22395L1.64585 6.14061C1.24481 5.90624 1.1094 5.40103 1.33856 4.99999C1.57294 4.59895 2.07815 4.46353 2.47919 4.6927L6.08856 6.77603C6.48961 7.0104 6.63023 7.51561 6.39586 7.91665C6.16148 8.3177 5.65627 8.45311 5.25523 8.22395Z" fill="white"/>
</mask>
<g mask="url(#mask0)">
<rect width="20" height="20" fill="#FA9FBD"/>
</g>
</svg>
